<svg id="Layer_1" data-name="Layer 1" xmlns="http://www.w3.org/2000/svg" viewBox="0 0 316.13 316.13"><title>tanveerlg</title><path d="M1009.52,357.34A158.06,158.06,0,1,0,1169.8,517.53C1171,428.92,1098.12,356.11,1009.52,357.34Zm3.13,290.56h-.9a132.51,132.51,0,0,1,0-265h.9a132.58,132.58,0,0,1,124.22,86.25,2.23,2.23,0,0,1,.09,1.25c-3,13.44-22.81,8.47-40.41,6.2q-25.24-4-36.77-3.95c-18.75-.08-35,4.44-48,14a70.29,70.29,0,0,0-19.69,22.66,44.56,44.56,0,0,0-3.1,6.08c-8,18.48-12.07,52.81,6.41,58.76a2.3,2.3,0,0,0,1.22,0c16.78-4.17,3.11-20.53-1.71-28.66a2.27,2.27,0,0,1-.27-.71c-2.26-11.68-.9-21.45,3-29.42a42,42,0,0,1,14.1-15.85c14.45-10,35.54-13.57,55.89-11.65a2.21,2.21,0,0,1,1.93,2.72l-.31,1.34-4.77,23.44-11.62,57.19,0,.14c-11.17,40.73-7.14,66-27.86,74.51a2.39,2.39,0,0,1-.69.16Q1018.53,647.91,1012.65,647.9Zm49.14-9.42a2.22,2.22,0,0,1-3-2.48c6.87-35.43,17.22-83.86,25.19-120.62,1.88-8.69,3.62-16.72,5.17-23.78a2.21,2.21,0,0,1,2.37-1.73c15,1.49,36.11,1,47.28-4.89a2.22,2.22,0,0,1,3.21,1.49,132.62,132.62,0,0,1-80.21,152Z" transform="translate(-853.69 -357.32)" fill="#fff"/></svg>